{"glyphs":{":":{"x_min":0,"x_max":284,"ha":284,"o":"m 222 49 q 211 47 190 26 q 168 5 161 -8 q 112 8 112 33 q 112 51 134 68 q 155 85 183 85 q 224 85 224 60 q 224 57 222 49 z m 326 354 q 315 352 294 331 q 272 310 265 297 q 216 313 216 338 q 216 356 238 373 q 259 390 287 390 q 328 390 328 365 q 328 362 326 354 z"},"$":{"x_min":0,"x_max":455,"ha":455,"o":"m 445 559 q 452 548 452 530 q 452 513 442 500 q 431 487 411 487 l 405 487 q 405 524 360 549 l 304 402 l 323 389 q 408 330 408 263 q 408 196 344 140 q 279 84 185 84 l 181 84 l 126 -58 q 125 -61 104 -61 q 82 -61 82 -53 l 137 89 q 96 98 70 122 q 45 146 45 182 q 45 217 64 244 q 82 272 113 272 q 120 272 124 271 q 102 255 102 231 q 102 207 117 186 q 132 164 162 154 l 236 347 q 162 413 162 464 q 162 516 208 557 q 253 598 334 601 l 372 699 q 374 702 395 702 q 416 702 416 695 l 416 694 l 379 598 q 427 589 445 559 z m 269 431 l 319 562 l 311 562 q 281 562 260 544 q 238 525 238 492 q 238 460 269 431 z m 288 306 l 271 318 l 206 150 q 259 153 292 180 q 325 208 325 244 q 325 279 288 306 z"},"?":{"x_min":0,"x_max":551,"ha":551,"o":"m 211 235 l 212 221 q 212 209 200 200 q 187 192 174 192 q 151 192 151 219 q 151 273 216 322 l 240 338 q 370 421 418 489 q 440 521 440 556 q 440 591 416 616 q 393 641 354 641 q 326 641 280 616 q 257 603 240 577 q 223 551 223 526 q 223 500 230 486 q 216 478 198 478 q 179 478 162 496 q 146 514 146 544 q 146 589 186 620 q 256 675 366 675 q 554 675 554 556 q 554 487 510 452 q 467 417 394 387 q 319 354 281 331 q 211 286 211 235 z m 195 49 q 184 47 162 26 q 141 5 134 -8 q 85 8 85 33 q 85 51 106 68 q 128 85 156 85 q 197 85 197 60 q 197 57 195 49 z"},"<":{"x_min":0,"x_max":479,"ha":479,"o":"m 457 577 q 458 578 460 578 q 462 578 462 568 q 462 557 447 536 q 419 503 306 423 q 193 343 124 301 q 312 167 362 80 q 363 78 363 74 q 363 60 340 40 q 317 21 305 21 q 303 21 302 22 q 170 171 51 257 q 26 274 26 285 q 26 296 56 313 q 263 430 457 577 z"},"'":{"x_min":0,"x_max":143,"ha":143,"o":"m 256 650 q 228 585 180 518 q 133 452 108 452 q 101 452 94 456 q 155 547 171 652 q 172 665 214 665 q 256 665 256 652 z"},"=":{"x_min":0,"x_max":531,"ha":531,"o":"m 194 425 l 513 425 q 514 425 514 420 q 514 415 496 391 q 479 367 470 367 l 151 367 q 150 367 150 372 q 150 377 167 401 q 184 425 194 425 z m 140 238 l 459 238 q 460 238 460 233 q 460 228 442 204 q 425 180 416 180 l 97 180 q 96 180 96 185 q 96 190 113 214 q 130 238 140 238 z"},"a":{"x_min":0,"x_max":473,"ha":473,"o":"m 445 400 l 495 399 l 505 399 q 472 372 424 262 q 376 153 376 103 q 376 77 394 77 q 452 77 542 248 q 546 255 549 255 q 555 255 555 236 q 555 218 545 201 q 422 -6 339 -6 q 285 -6 285 77 q 285 139 306 199 q 192 -3 95 -3 q 28 -3 28 89 q 28 159 58 231 q 89 303 146 354 q 203 404 271 404 q 303 404 331 390 q 359 375 368 343 q 379 366 402 383 q 425 400 445 400 z m 362 334 q 352 366 315 366 q 249 366 187 274 q 125 183 125 111 q 125 80 149 80 q 175 80 210 112 q 245 145 273 189 q 335 287 362 334 z"},"L":{"x_min":0,"x_max":570,"ha":570,"o":"m 564 129 q 536 42 482 19 q 453 7 428 4 q 402 0 362 0 l 59 0 q 19 0 19 56 q 19 199 258 630 q 276 659 277 661 q 192 659 104 626 q 17 594 3 549 q 2 546 -1 546 q -10 546 -10 559 q -10 561 -2 586 q 7 611 30 638 q 53 665 82 678 q 131 698 203 698 l 430 698 q 389 667 324 551 q 260 435 198 296 q 137 158 137 99 q 137 34 208 34 q 498 34 554 148 q 556 151 559 151 q 566 151 566 141 q 566 139 564 129 z"},"3":{"x_min":0,"x_max":600,"ha":600,"o":"m 389 380 q 469 367 511 322 q 553 276 553 213 q 553 150 504 96 q 455 41 384 14 q 312 -13 245 -13 q 178 -13 132 0 q 85 14 52 48 q 20 82 20 128 q 20 174 46 208 q 72 243 112 243 q 131 243 151 233 q 113 178 113 127 q 113 76 151 48 q 189 19 249 19 q 326 19 380 73 q 435 127 435 197 q 435 267 392 312 q 350 356 286 356 q 248 356 208 338 q 202 335 194 335 q 185 335 178 344 q 172 352 172 366 q 172 380 186 392 q 200 403 234 403 q 267 403 304 386 q 379 405 428 460 q 478 516 478 585 q 478 631 450 660 q 422 690 363 690 q 304 690 260 644 q 217 597 217 537 q 217 518 223 498 q 210 493 194 493 q 179 493 164 511 q 150 529 150 560 q 150 611 190 648 q 264 717 390 717 q 593 717 593 578 q 593 517 538 462 q 484 406 389 380 z"},";":{"x_min":0,"x_max":342,"ha":342,"o":"m 353 337 q 342 335 320 314 q 299 293 292 280 q 243 296 243 321 q 243 339 264 356 q 286 373 314 373 q 355 373 355 348 q 355 345 353 337 z m 246 64 q 218 -1 170 -68 q 123 -134 98 -134 q 91 -134 84 -130 q 145 -39 161 66 q 162 79 204 79 q 246 79 246 66 z"},"J":{"x_min":0,"x_max":390,"ha":390,"o":"m -39 -3 l -40 -9 q -40 -37 -26 -50 q -11 -64 10 -64 q 131 -64 304 364 q 307 372 318 398 q 328 424 355 478 q 382 532 422 586 q 461 641 491 652 q 462 660 388 660 q 314 660 222 628 q 131 596 116 549 q 114 546 112 546 q 103 546 103 559 q 103 561 105 569 q 124 624 160 654 q 196 684 230 691 q 265 698 316 698 l 363 698 l 588 697 q 529 652 506 628 q 483 604 458 554 q 433 505 411 444 q 389 383 374 336 q 359 289 346 252 q 334 215 312 160 q 291 105 270 63 q 250 21 221 -25 q 192 -71 162 -101 q 95 -170 19 -170 q -28 -170 -56 -144 q -85 -117 -85 -73 q -85 -52 -74 -29 q -63 -6 -39 -3 z"},"V":{"x_min":0,"x_max":450,"ha":450,"o":"m 580 698 l 670 698 q 637 644 479 402 q 321 160 299 126 q 277 91 267 76 q 257 60 252 52 q 248 45 238 33 q 229 21 222 15 q 203 0 182 0 l 118 0 q 134 31 137 70 q 140 110 142 154 q 143 198 146 250 q 148 301 148 355 q 148 620 88 620 q 67 620 45 585 l 44 584 q 40 584 40 590 l 40 591 q 52 628 96 670 q 139 711 170 711 q 219 711 235 632 q 251 552 251 400 q 251 249 239 111 q 318 222 430 418 q 543 614 580 698 z"},"\"":{"x_min":0,"x_max":373,"ha":373,"o":"m 358 690 q 358 689 338 662 q 317 636 276 575 q 236 514 227 496 q 224 492 207 492 q 190 492 190 495 q 195 502 268 689 q 273 701 316 701 q 358 701 358 690 z m 220 691 q 220 689 200 662 q 179 635 138 574 q 97 513 89 496 q 88 492 70 492 q 53 492 53 495 q 58 503 131 689 q 136 701 178 701 q 220 701 220 691 z"},"7":{"x_min":0,"x_max":539,"ha":539,"o":"m 165 713 l 276 708 l 529 708 q 544 708 544 686 q 544 664 526 640 q 507 616 450 545 q 394 474 360 430 q 259 299 220 228 q 181 157 181 112 q 181 92 191 78 q 201 63 216 63 q 232 63 242 66 q 233 26 204 8 q 174 -11 139 -11 q 104 -11 78 12 q 52 36 52 80 q 52 124 82 180 q 111 235 154 284 q 198 334 250 386 q 301 438 344 480 q 447 577 447 620 q 447 624 445 634 l 233 634 q 182 634 152 620 q 122 605 112 584 q 103 564 98 544 q 94 523 86 508 q 79 494 65 494 q 51 495 51 501 q 51 503 54 510 q 57 517 62 535 q 66 553 71 577 q 91 674 108 694 q 125 713 165 713 z"},"S":{"x_min":0,"x_max":523,"ha":523,"o":"m 452 541 q 452 545 454 557 q 481 557 501 578 q 521 599 521 624 q 521 649 497 665 q 473 681 439 681 q 381 681 343 646 q 305 611 305 564 q 305 539 323 509 q 341 479 358 462 q 374 444 412 410 q 449 375 456 368 q 532 292 532 202 q 532 113 451 46 q 370 -20 257 -20 q 165 -20 108 10 q 52 40 52 104 q 52 139 75 168 q 98 197 140 197 q 183 197 198 167 q 163 139 163 100 q 163 60 190 38 q 216 17 259 17 q 319 17 364 60 q 410 103 410 168 q 410 234 324 325 q 323 327 289 362 q 255 398 232 435 q 210 472 210 523 q 210 610 278 663 q 346 716 438 716 q 531 716 571 686 q 611 656 611 614 q 611 571 582 534 q 554 498 503 498 q 452 498 452 541 z"},"}":{"x_min":0,"x_max":572,"ha":572,"o":"m 216 710 l 268 712 q 368 712 390 704 q 411 695 426 686 q 454 669 454 628 q 454 587 426 504 q 397 422 397 386 q 397 351 417 332 q 437 312 458 307 q 478 302 500 302 l 490 271 q 409 265 396 256 q 382 247 368 236 q 332 207 311 112 q 303 75 296 53 q 289 31 266 4 q 242 -24 209 -40 q 176 -57 162 -63 q 148 -69 114 -76 q 79 -82 55 -82 q 31 -82 22 -82 q 14 -81 9 -81 l 19 -50 q 105 -50 148 -17 q 167 -3 181 21 q 195 45 200 64 q 206 84 214 115 q 223 146 230 164 q 249 215 307 252 q 365 289 427 291 q 380 292 342 320 q 303 349 303 388 q 303 428 326 501 q 349 574 349 610 q 349 682 243 682 q 235 682 222 682 q 209 681 204 681 z"},"Z":{"x_min":0,"x_max":683,"ha":683,"o":"m 800 698 q 559 488 193 128 q 221 114 275 103 q 411 72 489 72 q 614 72 614 144 q 614 163 600 173 q 600 175 604 179 q 607 183 609 183 q 637 182 658 162 q 680 142 680 114 q 680 66 630 26 q 581 -13 510 -13 q 438 -13 370 12 q 301 37 249 62 q 197 88 174 88 q 152 88 107 38 q 62 -11 36 -11 q 20 -11 10 0 q 0 12 0 29 q 0 59 31 78 q 157 156 359 348 q 561 541 648 628 q 612 612 559 600 q 506 588 474 588 q 441 588 375 594 q 309 601 284 601 q 260 601 230 576 q 201 550 198 516 q 198 510 188 510 q 181 510 181 530 q 181 571 212 618 q 244 666 274 684 q 303 701 350 701 q 398 701 478 683 q 558 665 610 665 q 663 665 702 684 q 741 702 766 702 q 791 702 800 698 z"},"x":{"x_min":0,"x_max":448,"ha":448,"o":"m 127 305 q 73 198 64 189 q 59 189 59 209 q 59 229 63 237 q 79 266 94 312 q 110 357 122 378 q 134 399 152 399 l 204 399 q 216 332 244 244 q 269 269 314 320 q 358 372 374 390 q 383 400 404 400 q 425 400 436 400 q 446 399 448 399 q 368 328 252 207 q 286 97 314 70 q 328 57 343 57 q 383 57 448 138 q 458 150 476 180 q 524 258 526 258 q 531 258 531 239 q 531 220 520 201 q 478 129 447 92 q 416 55 374 23 q 333 -9 294 -9 q 255 -9 228 25 q 201 59 181 129 q 97 45 61 0 l -13 0 q 59 65 167 171 q 143 237 127 305 z"},")":{"x_min":0,"x_max":574,"ha":574,"o":"m 563 557 q 563 388 431 222 q 345 114 230 40 q 115 -33 1 -52 l 9 -25 q 189 21 330 190 q 471 358 471 539 q 471 663 377 663 q 358 663 344 661 l 351 691 q 393 707 450 707 q 507 707 535 664 q 563 620 563 557 z"},"&":{"x_min":0,"x_max":789,"ha":789,"o":"m 387 339 l 343 346 q 252 346 188 276 q 124 207 124 137 q 124 82 160 45 q 196 8 261 8 q 368 8 432 65 q 496 122 496 184 q 496 246 441 246 q 424 246 411 225 q 398 204 397 188 q 381 207 381 232 q 381 256 408 281 q 436 306 480 320 l 631 366 q 732 396 745 427 q 748 421 748 408 q 748 364 718 340 q 688 316 648 309 q 505 284 458 260 q 480 266 492 266 q 527 266 546 244 q 566 222 566 191 q 566 123 508 70 q 451 16 378 -8 q 306 -32 255 -32 q 204 -32 166 -25 q 129 -18 93 -2 q 57 14 35 44 q 13 75 13 117 q 13 219 97 291 q 181 363 289 368 q 253 386 232 416 q 212 446 212 480 q 212 541 256 588 q 300 634 360 654 q 419 675 477 675 q 535 675 574 646 q 612 618 612 578 q 612 539 586 514 q 560 488 529 488 q 516 488 510 493 q 555 518 555 565 q 555 624 476 624 q 397 624 342 573 q 287 522 287 465 q 287 423 313 401 q 339 379 371 377 l 391 377 q 418 377 418 366 q 418 358 408 348 q 397 339 387 339 z"},"_":{"x_min":0,"x_max":758,"ha":758,"o":"m 0 -100 l 758 -100 q 759 -100 759 -105 q 759 -110 740 -138 q 721 -165 712 -165 l -46 -165 q -47 -165 -47 -160 q -47 -155 -28 -128 q -10 -100 0 -100 z"},"v":{"x_min":0,"x_max":404,"ha":404,"o":"m 474 198 q 433 125 371 125 q 319 125 298 181 q 211 50 176 26 q 127 -7 80 -7 q 56 -7 40 16 q 25 40 25 80 q 25 121 50 202 q 99 361 163 388 q 194 401 247 401 q 251 401 251 397 q 251 393 245 387 q 207 355 162 250 q 118 146 118 102 q 118 59 151 59 q 179 59 216 114 q 253 170 278 237 q 273 260 273 296 q 273 331 290 366 q 308 402 339 402 q 370 402 370 356 q 370 302 337 246 q 328 230 325 224 q 326 193 340 176 q 355 159 378 159 q 414 159 445 204 q 457 222 466 236 q 476 251 477 251 q 481 251 481 230 q 481 209 474 198 z"},"O":{"x_min":0,"x_max":763,"ha":763,"o":"m 778 303 q 712 153 590 60 q 467 -32 311 -32 q 63 -32 63 187 q 63 286 104 382 q 146 477 214 548 q 282 620 375 664 q 468 708 565 708 q 692 708 756 646 q 819 583 819 490 q 819 396 778 303 z m 736 499 q 736 662 590 662 q 484 662 388 589 q 291 516 236 406 q 180 296 180 186 q 180 107 215 58 q 250 9 326 9 q 403 9 480 55 q 557 101 612 172 q 667 244 702 332 q 736 419 736 499 z"},"(":{"x_min":0,"x_max":620,"ha":620,"o":"m 612 706 l 604 679 q 487 650 380 563 q 274 476 208 356 q 141 235 141 113 q 141 -9 236 -9 q 253 -9 269 -7 l 262 -37 q 220 -53 163 -53 q 106 -53 78 -10 q 50 33 50 97 q 50 194 100 298 q 149 402 228 486 q 307 569 410 629 q 512 689 612 706 z"},"C":{"x_min":0,"x_max":680,"ha":680,"o":"m 716 556 q 700 515 656 487 q 613 459 566 459 q 544 459 530 468 q 516 478 516 493 q 516 508 528 525 q 539 521 553 521 q 592 521 625 548 q 658 575 658 613 q 658 671 581 671 q 479 671 382 601 q 285 531 226 420 q 166 308 166 193 q 166 15 328 15 q 429 15 542 93 q 655 171 692 262 q 711 249 711 227 q 711 182 647 116 q 583 49 486 10 q 389 -30 288 -30 q 53 -30 53 189 q 53 272 90 362 q 127 453 190 530 q 253 608 348 658 q 442 708 534 708 q 626 708 675 676 q 724 645 724 596 q 724 578 716 556 z"},"W":{"x_min":0,"x_max":1000,"ha":1000,"o":"m 1103 607 l 1103 591 q 1103 490 1042 361 q 981 232 892 134 q 844 82 780 44 q 715 6 649 6 q 525 6 525 192 q 525 260 543 350 q 462 190 388 104 q 294 -4 191 -4 q 144 -4 114 31 q 83 66 83 143 q 83 244 154 392 q 226 541 325 629 q 343 646 370 656 q 332 648 253 640 q 174 631 148 625 q 41 601 41 497 q 10 529 10 566 q 10 698 264 698 l 469 698 q 471 698 471 694 q 471 691 458 677 q 446 663 435 656 q 392 630 336 548 q 280 466 234 354 q 188 241 188 152 q 188 63 251 63 q 322 63 473 287 q 504 334 544 428 q 584 521 600 552 q 616 582 658 614 q 699 645 734 645 q 768 645 768 635 q 715 563 668 440 q 621 317 621 205 q 621 68 702 63 q 754 63 804 113 q 855 163 890 228 q 924 294 954 376 q 1005 513 1005 594 q 1005 675 952 675 q 936 675 916 668 q 918 686 940 698 q 963 709 1000 709 q 1036 709 1068 684 q 1100 658 1103 607 z"},"A":{"x_min":0,"x_max":750,"ha":750,"o":"m 468 698 l 692 698 q 667 673 605 660 q 543 647 465 640 q 387 632 363 627 q 256 602 256 499 q 225 531 225 568 q 225 698 468 698 z m 743 698 l 815 698 q 769 654 722 458 q 674 261 674 154 q 674 78 702 49 q 714 36 732 36 q 750 36 770 49 l 776 40 q 762 20 726 6 q 690 -9 655 -9 q 603 -9 584 28 q 565 65 562 127 q 562 178 575 259 l 346 259 q 197 101 112 0 l 12 0 q 106 86 304 282 q 559 536 639 634 q 659 658 669 668 q 679 677 700 688 q 720 698 743 698 z m 640 557 q 526 450 390 309 l 582 309 q 600 408 640 557 z"},"f":{"x_min":0,"x_max":339,"ha":339,"o":"m 133 313 q 58 170 50 170 q 45 170 45 186 q 45 203 51 215 q 100 299 125 375 q 129 388 134 392 q 139 397 151 397 l 159 397 l 247 390 q 253 405 268 445 q 282 485 290 506 q 298 527 314 563 q 330 599 343 620 q 356 641 377 668 q 398 694 419 708 q 470 742 529 742 q 633 742 633 665 q 633 636 616 613 q 600 590 573 590 q 560 590 550 597 q 541 604 541 614 q 541 623 556 644 q 571 666 571 682 q 571 697 558 707 q 546 717 529 717 q 499 717 469 685 q 439 653 414 601 q 370 510 335 407 q 334 402 333 400 q 330 392 328 386 q 486 386 508 400 q 495 368 452 358 q 409 348 314 346 l 285 262 q 223 84 189 18 q 155 -49 124 -97 q 94 -145 64 -176 q -4 -248 -77 -248 q -126 -248 -150 -225 q -173 -202 -173 -174 q -173 -145 -160 -126 q -147 -107 -131 -107 q -115 -107 -107 -114 q -99 -122 -99 -130 q -99 -139 -110 -158 q -120 -176 -120 -189 q -120 -202 -113 -211 q -106 -220 -88 -220 q -70 -220 -46 -202 q -21 -185 2 -152 q 88 -25 229 345 l 201 345 q 150 345 133 313 z"},"Q":{"x_min":0,"x_max":763,"ha":763,"o":"m 798 303 q 718 122 568 33 q 576 15 586 -28 q 595 -70 603 -103 q 611 -136 630 -162 q 648 -189 672 -189 q 695 -189 711 -173 q 719 -189 719 -203 q 719 -236 690 -258 q 662 -280 624 -280 q 586 -280 560 -262 q 535 -243 524 -208 q 512 -174 507 -143 q 502 -112 498 -67 q 495 -22 492 -3 q 416 -32 331 -32 q 83 -32 83 187 q 83 286 124 382 q 166 477 234 548 q 302 620 395 664 q 488 708 585 708 q 713 708 776 646 q 839 583 839 490 q 839 396 798 303 z m 756 499 q 756 662 616 662 q 538 662 461 617 q 384 572 328 502 q 272 432 238 346 q 203 259 203 181 q 203 103 238 56 q 272 10 342 10 q 412 10 481 44 q 471 71 453 85 q 435 99 416 99 l 389 95 q 380 95 380 101 q 380 114 400 120 q 419 127 440 127 q 496 127 538 80 q 635 153 696 272 q 756 390 756 499 z"},"w":{"x_min":0,"x_max":677,"ha":677,"o":"m 408 378 l 462 377 q 479 377 482 378 q 445 356 394 210 q 365 133 365 92 q 365 52 395 52 q 430 52 466 92 q 503 133 522 170 q 540 207 551 237 q 546 262 546 298 q 546 334 564 368 q 583 402 611 402 q 643 402 643 357 q 643 317 633 294 q 623 271 613 252 q 603 232 599 224 q 599 195 614 177 q 630 159 650 159 q 697 159 745 246 q 748 251 750 251 q 753 251 753 237 q 753 183 716 154 q 679 125 642 125 q 588 125 571 181 l 568 191 q 506 83 458 38 q 411 -7 346 -7 q 262 -7 262 88 q 262 105 266 127 q 171 -6 80 -6 q 55 -6 38 16 q 22 38 22 78 q 22 117 50 200 q 103 360 166 387 q 196 400 250 400 q 253 400 253 396 q 253 399 246 389 q 208 335 168 246 q 160 226 143 176 q 126 126 126 92 q 126 59 151 59 q 201 59 296 241 q 336 318 337 319 q 374 378 408 378 z"},"-":{"x_min":0,"x_max":490,"ha":490,"o":"m 200 288 l 479 288 q 480 288 480 283 q 480 278 462 250 q 443 223 433 223 l 154 223 q 153 223 153 228 q 153 233 172 260 q 191 288 200 288 z"},"E":{"x_min":0,"x_max":570,"ha":570,"o":"m 441 698 l 550 703 q 581 703 584 690 q 588 678 588 672 q 588 637 564 584 q 539 530 528 530 q 518 530 518 538 l 526 598 q 526 629 501 647 q 476 665 441 665 q 406 665 389 660 q 372 655 362 639 q 289 530 229 391 l 490 391 l 491 390 q 491 383 477 362 q 463 342 454 342 l 207 342 q 180 276 154 194 q 128 112 128 86 q 128 59 144 46 q 160 34 198 34 q 490 34 544 148 q 546 151 552 151 q 557 151 557 145 q 557 139 555 129 q 527 42 472 19 q 443 7 418 4 q 392 0 352 0 l 50 0 q 19 0 19 47 q 19 128 108 342 l 53 342 q 45 342 45 347 q 45 357 64 374 q 83 391 95 391 l 129 391 q 221 612 262 660 q 168 648 90 620 q 13 592 -11 551 q -12 548 -16 548 q -20 548 -20 554 q -20 559 -19 561 q 19 665 120 688 q 166 698 243 698 z"},"s":{"x_min":0,"x_max":378,"ha":378,"o":"m 451 203 q 376 78 315 29 q 254 -20 157 -20 q 101 -20 63 2 q 25 23 25 65 q 25 89 39 109 q 53 129 78 129 q 102 129 109 111 q 90 92 90 67 q 90 17 146 17 q 179 17 204 40 q 228 63 228 90 q 228 118 216 139 q 204 160 187 176 q 170 192 153 208 q 112 247 112 298 q 112 348 150 382 q 189 417 256 417 q 298 417 327 402 q 356 387 356 356 q 356 324 337 301 q 318 278 286 278 q 253 278 253 308 q 253 315 276 329 q 299 343 299 358 q 299 373 286 380 q 274 388 251 388 q 228 388 206 372 q 185 356 185 330 q 185 304 207 281 q 229 258 255 242 q 281 226 303 198 q 325 169 325 138 q 325 106 310 81 q 296 56 276 41 q 332 65 395 161 q 401 169 416 194 q 451 257 455 257 q 461 257 461 238 q 461 220 451 203 z"},">":{"x_min":0,"x_max":479,"ha":479,"o":"m 492 342 q 517 325 517 314 q 517 302 487 285 q 275 165 86 22 q 84 20 82 20 q 80 20 80 25 q 80 46 96 62 q 123 95 234 173 q 344 251 419 298 q 350 346 280 408 q 209 471 181 519 q 179 523 179 525 q 179 539 202 558 q 226 578 238 578 q 240 578 241 577 q 373 428 492 342 z"},"l":{"x_min":0,"x_max":246,"ha":246,"o":"m 415 610 q 379 537 305 444 q 231 352 172 296 l 156 250 q 144 215 133 165 q 122 115 123 94 q 123 64 145 64 q 167 64 198 89 q 228 114 242 132 q 256 151 274 181 q 293 211 306 233 q 320 255 322 255 q 328 255 328 236 q 328 218 318 201 q 263 108 229 70 q 160 -6 87 -6 q 31 -6 31 70 q 31 145 98 332 q 103 348 121 399 q 139 450 152 478 q 165 507 187 554 q 209 601 230 629 q 250 657 275 686 q 324 744 381 744 q 438 744 438 692 q 438 652 415 610 z m 394 719 l 387 719 q 326 719 192 353 q 329 514 379 617 q 407 680 407 700 q 407 719 394 719 z"},"8":{"x_min":0,"x_max":587,"ha":587,"o":"m 440 394 q 540 337 540 238 q 540 138 444 64 q 347 -11 223 -11 q 129 -11 66 38 q 4 86 4 162 q 4 237 64 300 q 124 364 222 396 q 149 445 149 519 q 149 606 218 663 q 287 720 406 720 q 495 720 548 680 q 601 641 601 576 q 601 454 440 394 z m 386 427 q 528 481 532 572 q 532 618 490 651 q 449 684 392 684 q 334 684 285 649 q 236 614 236 569 q 236 524 282 482 q 327 441 386 427 z m 284 343 q 103 271 103 153 q 103 102 142 68 q 182 35 253 35 q 324 35 386 80 q 448 125 448 208 q 448 268 396 300 q 358 323 284 343 z"},"\\":{"x_min":0,"x_max":455,"ha":455,"o":"m 170 699 l 424 -53 q 425 -56 405 -58 q 385 -61 363 -61 q 341 -61 340 -58 l 86 694 q 85 697 105 700 q 125 702 146 702 q 168 702 170 699 z"},"e":{"x_min":0,"x_max":358,"ha":358,"o":"m 436 260 q 442 260 442 240 q 442 221 426 194 q 410 167 394 143 q 379 119 353 87 q 327 55 302 36 q 239 -10 176 -10 q 112 -10 73 22 q 34 55 34 122 q 34 224 109 311 q 184 398 284 398 q 329 398 356 374 q 383 351 383 318 q 383 262 330 228 q 277 194 205 194 q 163 194 143 205 q 124 154 124 115 q 124 31 195 31 q 237 31 282 64 q 326 96 358 136 q 389 177 429 253 q 433 260 436 260 z m 330 339 q 330 368 302 368 q 263 368 215 320 q 167 272 167 242 q 167 222 205 222 q 243 222 284 259 q 326 296 330 339 z"},"b":{"x_min":0,"x_max":443,"ha":443,"o":"m 520 256 q 526 256 526 238 q 526 219 520 209 l 498 172 q 449 91 418 64 q 384 33 352 33 q 310 33 296 72 q 255 31 213 10 q 171 -10 119 -10 q 67 -10 46 6 q 24 23 24 62 q 24 100 36 149 q 67 281 140 460 q 213 638 255 649 q 268 652 302 652 q 337 653 344 654 q 305 625 238 484 q 172 343 138 213 q 246 404 342 404 q 410 404 410 306 q 410 209 328 108 q 329 91 338 81 q 347 71 361 71 q 375 71 392 84 q 408 96 416 106 q 425 115 439 133 q 453 151 472 182 q 491 212 504 234 q 518 256 520 256 z m 298 319 q 295 320 282 320 q 270 320 236 294 q 201 268 155 194 q 109 121 109 74 q 109 26 138 26 q 191 26 252 128 q 313 231 313 290 q 313 315 298 319 z"},"%":{"x_min":0,"x_max":670,"ha":670,"o":"m 577 672 q 546 626 492 585 l 160 0 q 158 -5 131 -5 q 104 -5 104 -1 l 104 0 l 432 575 q 418 571 404 571 q 363 571 338 596 q 339 588 339 570 q 339 499 294 434 q 250 370 178 370 q 132 370 109 402 q 86 433 86 482 q 86 555 131 618 q 176 680 246 680 q 291 680 318 646 q 346 612 380 612 q 413 612 447 634 q 481 655 499 685 q 509 702 545 702 q 581 702 581 682 q 581 680 577 672 z m 586 146 q 571 85 530 40 q 488 -5 436 -5 q 384 -5 361 26 q 338 58 338 108 q 338 181 383 244 q 428 306 498 306 q 546 306 569 274 q 592 243 592 195 q 592 170 586 146 z m 293 574 q 293 636 251 636 q 217 636 188 588 q 159 540 159 486 q 159 457 170 440 q 181 423 202 423 q 224 423 246 448 q 269 473 281 508 q 293 544 293 574 z m 545 199 q 545 261 503 261 q 469 261 440 213 q 411 165 411 107 q 411 49 452 49 q 476 49 499 74 q 522 99 534 134 q 545 169 545 199 z"},"m":{"x_min":0,"x_max":665,"ha":665,"o":"m 737 201 q 700 139 670 98 q 639 56 600 25 q 561 -6 529 -6 q 470 -6 470 62 q 470 141 533 287 q 547 324 547 338 q 547 358 529 358 q 518 358 491 345 q 464 332 440 306 q 415 280 400 258 q 385 236 367 192 q 349 148 343 130 q 314 40 304 0 l 206 0 q 258 144 278 194 q 297 244 301 256 l 310 284 q 321 316 321 337 q 321 358 302 358 q 286 358 258 344 q 231 330 205 303 q 179 276 162 240 q 144 205 134 179 q 123 153 112 116 q 101 78 92 54 q 84 31 75 0 l -22 0 q -11 42 2 75 l 67 241 q 107 341 107 387 q 107 397 105 400 l 147 400 q 181 400 191 394 q 201 387 201 376 q 201 365 189 325 q 277 405 365 405 q 418 405 418 361 q 418 342 407 314 q 498 405 594 405 q 646 405 646 361 q 646 341 639 323 q 632 305 621 276 q 610 248 603 230 q 596 211 587 184 q 568 129 568 102 q 568 76 584 76 q 601 76 626 98 q 651 120 664 136 q 676 152 694 182 q 713 211 726 233 q 739 255 741 255 q 747 255 747 236 q 747 218 737 201 z"},"#":{"x_min":0,"x_max":781,"ha":781,"o":"m 155 75 l 200 191 l 62 191 q 61 191 61 196 q 61 201 80 228 q 98 256 107 256 l 225 256 l 282 403 l 133 403 q 132 403 132 408 q 132 413 150 440 q 169 468 179 468 l 307 468 l 360 605 q 360 606 361 606 q 367 606 386 580 q 404 553 404 541 l 404 539 l 377 468 l 534 468 l 587 605 q 587 606 588 606 q 593 606 612 580 q 631 553 631 541 l 631 539 l 603 468 l 748 468 q 749 468 749 463 q 749 458 730 430 q 712 403 702 403 l 578 403 l 521 256 l 676 256 q 677 256 677 251 q 677 246 658 218 q 640 191 630 191 l 496 191 l 426 9 l 425 8 q 419 8 400 34 q 381 61 382 68 q 382 74 382 75 l 427 191 l 269 191 l 199 9 l 198 8 q 192 8 173 34 q 154 61 154 68 q 155 74 155 75 z m 452 256 l 508 403 l 351 403 l 295 256 z"},",":{"x_min":0,"x_max":271,"ha":271,"o":"m 246 64 q 218 -1 170 -68 q 123 -134 98 -134 q 91 -134 84 -130 q 145 -39 161 66 q 162 79 204 79 q 246 79 246 66 z"},"n":{"x_min":0,"x_max":436,"ha":436,"o":"m 508 201 q 471 139 440 98 q 410 56 371 25 q 332 -6 300 -6 q 241 -6 241 59 q 241 124 316 320 q 320 329 320 339 q 320 360 294 360 q 267 360 242 344 q 216 327 195 296 q 174 266 157 234 q 140 203 126 162 q 111 121 102 94 q 94 66 86 34 q 77 3 76 0 l -21 0 q -21 21 67 241 q 103 344 103 385 q 103 395 100 400 l 142 400 q 177 400 187 393 q 197 386 197 374 q 197 362 186 325 q 270 405 355 405 q 412 405 412 353 q 412 336 407 319 q 402 302 382 251 q 338 139 338 101 q 338 77 356 77 q 369 77 392 95 q 416 113 432 132 q 447 152 466 182 q 484 211 497 233 q 510 255 512 255 q 518 255 518 236 q 518 218 508 201 z"},"h":{"x_min":0,"x_max":438,"ha":438,"o":"m 510 201 q 387 -6 302 -6 q 243 -6 243 62 q 243 141 306 287 q 320 324 320 338 q 320 358 302 358 q 290 358 262 344 q 233 330 207 303 q 181 276 164 240 q 146 205 136 179 q 125 153 114 116 q 103 78 94 54 q 86 31 77 0 l -20 0 q 7 69 58 220 q 108 372 144 458 q 180 545 214 604 q 249 664 294 704 q 338 744 388 744 q 437 744 437 697 q 437 664 410 610 q 352 496 216 346 q 270 385 302 397 q 333 409 362 409 q 419 409 419 359 q 419 339 412 322 q 405 305 396 283 q 388 261 382 247 q 377 233 368 209 q 359 185 354 168 q 341 126 341 101 q 341 76 358 76 q 418 76 508 250 q 511 257 516 257 q 520 257 520 238 q 520 220 510 201 z m 389 719 q 354 719 298 608 q 241 497 187 353 q 324 514 374 617 q 402 680 402 700 q 402 719 389 719 z"},"z":{"x_min":0,"x_max":426,"ha":426,"o":"m 498 201 q 431 89 380 35 q 328 -19 279 -19 q 253 -19 195 11 q 137 41 124 41 q 112 41 108 38 q 67 -11 46 -11 q 26 -11 26 9 q 26 29 38 42 q 51 54 58 60 q 64 66 78 76 q 91 86 115 106 q 188 165 287 260 l 322 293 l 302 296 q 231 307 208 307 q 155 307 127 281 q 124 278 92 230 q 60 181 59 181 q 55 181 55 202 q 55 223 63 237 q 71 251 88 285 q 104 319 110 330 q 117 342 131 359 q 145 376 161 382 q 177 387 195 387 q 213 387 251 381 l 263 379 q 346 364 367 364 q 401 364 431 398 q 437 405 448 405 q 458 405 479 398 q 401 326 154 86 q 200 49 257 49 q 259 49 261 49 q 306 49 350 73 q 394 97 426 138 q 439 155 471 208 q 503 260 505 260 q 510 260 510 241 q 510 222 498 201 z"},"B":{"x_min":0,"x_max":580,"ha":580,"o":"m 614 548 q 603 441 480 388 q 451 376 421 370 q 577 341 577 222 q 577 121 470 52 q 362 -17 203 -17 q 125 -17 73 8 q 21 32 21 89 q 21 159 95 333 q 169 507 232 630 q 242 650 247 658 l 211 653 q 133 642 68 616 q 2 590 -21 551 q -22 548 -26 548 q -30 548 -30 554 q -30 559 -29 561 q 9 665 110 688 q 156 698 233 698 l 430 698 q 521 698 568 659 q 614 620 614 561 z m 510 574 q 501 662 371 668 q 324 607 247 439 q 170 271 149 196 q 128 122 128 84 q 128 45 150 34 q 172 22 223 22 q 318 22 389 74 q 460 125 460 227 q 460 277 436 313 q 411 349 364 355 q 302 338 244 338 q 227 338 227 345 q 227 368 258 376 q 289 385 317 385 q 345 385 372 381 q 437 401 474 453 q 510 505 510 561 z"},"K":{"x_min":0,"x_max":640,"ha":640,"o":"m 871 687 q 807 687 660 595 q 514 503 398 398 q 431 288 517 166 q 603 44 667 2 q 652 -1 619 -1 l 534 2 q 506 2 459 66 q 412 131 376 210 q 339 289 331 335 q 274 278 235 222 q 219 199 198 130 q 176 62 176 34 q 176 7 180 0 l 51 0 q 83 123 164 334 q 244 546 308 637 q 308 638 325 661 q 240 659 152 626 q 65 594 51 549 q 50 546 47 546 q 39 546 39 559 q 39 561 47 586 q 55 611 78 638 q 100 665 130 678 q 179 698 252 698 l 478 698 q 428 660 360 530 q 292 400 249 292 q 290 350 358 420 q 427 491 506 556 q 584 620 668 663 q 751 706 814 706 q 876 706 876 692 q 876 687 871 687 z"},"R":{"x_min":0,"x_max":610,"ha":610,"o":"m 610 458 q 548 376 419 352 l 387 346 q 437 172 597 2 q 582 -1 551 -1 l 474 2 q 434 2 390 80 q 345 159 319 240 q 293 322 293 349 q 293 364 307 365 q 542 394 549 549 q 549 604 516 634 q 484 664 410 668 q 332 563 237 332 q 143 97 143 22 q 143 7 147 0 l 18 0 q 46 121 136 336 q 256 622 291 661 q 206 659 118 626 q 31 594 17 549 q 16 546 13 546 q 4 546 4 559 q 4 561 6 569 q 25 624 61 654 q 97 684 132 691 q 166 698 217 698 l 460 698 q 552 698 598 660 q 645 621 645 562 q 645 503 610 458 z"},"T":{"x_min":0,"x_max":400,"ha":400,"o":"m 605 627 l 464 633 q 454 633 398 514 q 342 394 301 282 q 260 170 260 120 q 260 71 292 71 q 323 71 371 136 q 376 142 381 142 q 386 142 386 133 q 386 124 372 100 q 359 76 337 48 q 315 21 280 0 q 245 -22 208 -22 q 153 -22 153 54 q 153 148 248 374 q 316 533 373 638 l 360 638 l 257 640 q 171 640 107 618 q 72 606 52 582 q 31 559 31 526 l 39 484 q 39 474 29 474 q 16 474 8 500 q 0 525 0 544 q 0 591 22 624 q 44 657 82 674 q 154 706 241 706 q 328 706 438 696 q 548 685 638 685 q 728 685 755 713 q 758 706 758 699 q 758 666 716 646 q 674 627 605 627 z"},"P":{"x_min":0,"x_max":490,"ha":490,"o":"m 664 548 q 658 482 622 432 q 586 383 530 356 q 423 302 282 302 q 257 302 236 305 q 153 95 153 22 q 153 7 157 0 l 28 0 q 56 121 146 336 q 266 622 301 661 q 216 659 128 626 q 41 594 27 549 q 26 546 23 546 q 14 546 14 559 q 14 561 16 569 q 35 624 71 654 q 107 684 142 691 q 176 698 227 698 l 480 698 q 571 698 618 659 q 664 620 664 561 z m 561 545 q 561 659 423 668 q 357 586 263 370 l 242 321 l 254 321 q 326 321 398 346 q 469 371 515 422 q 561 474 561 545 z"},"|":{"x_min":0,"x_max":457,"ha":457,"o":"m 279 697 l 348 697 l 242 -53 l 172 -53 z"},"t":{"x_min":0,"x_max":249,"ha":249,"o":"m 346 573 q 297 539 236 399 l 337 399 l 338 398 q 338 393 327 380 q 316 368 308 368 l 222 368 q 143 172 143 116 q 143 78 167 78 q 202 78 249 138 q 260 151 278 182 q 324 256 326 256 q 332 256 332 240 q 331 202 249 92 q 222 56 184 25 q 146 -6 115 -6 q 58 -6 58 74 q 58 141 90 228 l 90 229 q 71 194 58 177 q 44 160 42 160 q 38 160 38 172 q 38 185 52 213 q 65 241 88 286 q 112 331 127 368 l 60 368 q 57 368 57 372 q 57 377 64 388 q 72 399 76 399 l 152 399 q 224 572 298 572 q 341 572 346 573 z"},"M":{"x_min":0,"x_max":840,"ha":840,"o":"m 966 698 l 1028 698 q 983 663 892 482 q 757 210 757 91 q 757 36 792 36 q 808 36 831 49 l 832 49 q 835 49 835 44 q 835 25 784 8 q 734 -9 702 -9 q 635 -9 635 64 q 635 191 839 577 q 799 539 785 523 q 689 416 499 169 q 459 118 444 105 q 429 92 404 92 q 380 92 348 107 q 373 139 373 302 q 373 464 353 597 q 317 530 223 299 q 129 68 129 9 q 129 2 130 0 l 38 0 q 95 146 201 385 q 307 624 330 669 q 239 669 152 633 q 66 597 51 549 q 50 546 47 546 q 39 546 39 559 q 39 561 47 586 q 55 611 78 638 q 100 665 130 678 q 179 698 251 698 l 378 698 q 408 698 426 688 q 443 678 450 640 q 457 603 464 468 q 470 332 470 277 q 470 222 468 202 q 611 381 838 651 q 878 698 966 698 z"},"g":{"x_min":0,"x_max":436,"ha":436,"o":"m 472 400 l 512 400 q 491 386 466 339 q 441 292 424 246 q 406 201 378 122 q 316 -56 270 -114 q 224 -173 166 -204 q 109 -236 62 -236 q -38 -236 -38 -173 q -38 -148 -22 -126 q -7 -104 19 -104 q 45 -104 54 -125 q 44 -131 38 -146 q 33 -161 33 -174 q 33 -188 44 -197 q 54 -206 71 -206 q 119 -206 158 -158 q 197 -109 224 -45 q 231 -28 320 219 q 202 -3 98 -3 q 30 -3 30 89 q 30 159 60 231 q 91 303 148 354 q 205 404 273 404 q 304 404 332 390 q 361 376 369 344 q 384 376 404 388 q 425 400 472 400 z m 365 335 q 355 367 318 367 q 252 367 190 274 q 127 182 127 110 q 127 80 151 80 q 177 80 212 112 q 247 145 275 189 q 365 328 365 335 z"},"j":{"x_min":0,"x_max":215,"ha":215,"o":"m 206 390 l 246 390 q 224 377 211 352 q 198 326 191 312 q 184 299 173 270 q 173 270 156 226 q 137 176 122 132 q 107 88 102 73 q 96 58 82 23 q 67 -12 57 -31 q 47 -50 29 -82 q 11 -114 -5 -132 q -21 -150 -44 -172 q -68 -195 -92 -207 q -148 -236 -197 -236 q -298 -236 -298 -174 q -298 -149 -282 -126 q -267 -104 -240 -104 q -214 -104 -205 -125 q -215 -131 -220 -146 q -226 -161 -226 -174 q -226 -188 -216 -198 q -205 -207 -187 -207 q -103 -206 -36 -46 q -12 11 26 126 q 98 339 123 366 q 147 390 206 390 z m 322 532 l 318 532 q 298 532 280 515 q 261 498 253 480 q 227 490 227 516 q 227 542 251 568 q 275 595 297 595 q 319 595 330 585 q 341 575 341 560 q 341 544 322 532 z"},"i":{"x_min":0,"x_max":217,"ha":217,"o":"m 322 532 l 318 532 q 298 532 280 515 q 261 498 253 480 q 227 490 227 516 q 227 542 251 568 q 275 595 297 595 q 319 595 330 585 q 341 575 341 560 q 341 544 322 532 z m 186 400 l 236 399 l 246 399 q 230 387 204 334 q 177 281 164 254 q 151 227 134 181 q 118 135 118 106 q 118 77 137 77 q 150 77 174 94 q 197 112 212 132 q 227 151 246 181 q 264 211 278 233 q 291 255 293 255 q 299 255 299 236 q 299 218 289 201 q 252 139 222 98 q 191 56 152 25 q 113 -6 81 -6 q 25 -6 25 72 q 25 193 108 340 q 143 400 186 400 z"},"y":{"x_min":0,"x_max":425,"ha":425,"o":"m 440 390 l 481 390 q 450 371 418 296 q 392 233 374 182 q 356 130 352 119 q 348 108 334 66 q 319 23 310 0 q 285 -70 252 -111 q 219 -152 170 -176 q 121 -201 71 -201 q 21 -201 -14 -182 q -50 -162 -50 -120 q -50 -98 -36 -80 q -23 -63 -6 -63 q 12 -63 24 -71 q 36 -79 41 -89 q 23 -95 23 -131 q 23 -150 36 -162 q 50 -173 71 -173 q 152 -173 207 -28 l 264 124 q 217 65 182 36 q 148 6 128 0 q 109 -6 82 -6 q 56 -6 40 16 q 24 37 24 78 q 25 120 48 197 q 72 274 100 319 q 129 364 160 377 q 190 390 243 390 q 247 390 247 386 q 247 382 241 376 q 200 340 158 247 q 115 154 115 90 q 115 56 134 56 q 170 56 226 128 q 282 200 312 272 q 316 282 324 301 q 331 320 334 327 q 337 334 344 346 q 350 359 355 364 q 360 368 368 375 q 377 382 386 384 q 415 390 440 390 z"},"@":{"x_min":0,"x_max":917,"ha":917,"o":"m 812 190 q 782 144 724 113 q 667 82 616 82 q 565 82 536 109 q 507 136 507 192 q 507 226 519 271 q 425 122 352 122 q 323 122 302 147 q 282 172 282 214 q 282 323 350 420 q 418 516 516 516 q 549 516 568 500 q 586 485 600 444 q 617 478 632 490 q 646 502 679 502 l 735 502 q 682 460 634 343 q 586 226 586 172 q 586 107 634 107 q 705 107 755 196 q 805 284 805 379 q 805 497 734 580 q 663 662 533 662 q 429 662 344 603 q 258 544 212 452 q 166 361 166 273 q 166 185 191 126 q 216 67 258 34 q 342 -32 455 -32 q 568 -32 678 24 q 789 81 831 150 q 834 156 838 156 q 842 156 842 139 q 842 95 812 58 q 783 22 739 0 q 695 -22 639 -38 q 540 -65 443 -65 q 285 -65 186 12 q 88 88 88 245 q 88 326 119 404 q 150 481 206 544 q 261 606 346 644 q 431 682 530 682 q 687 682 781 598 q 875 514 875 389 q 875 288 812 190 z m 574 393 l 596 436 q 593 456 576 467 q 558 478 535 478 q 463 478 417 404 q 371 329 371 255 q 371 225 381 208 q 391 191 406 191 q 438 191 490 260 q 541 329 574 393 z"},".":{"x_min":0,"x_max":271,"ha":271,"o":"m 222 49 q 211 47 190 26 q 168 5 161 -8 q 112 8 112 33 q 112 51 134 68 q 155 85 183 85 q 224 85 224 60 q 224 57 222 49 z"},"p":{"x_min":0,"x_max":394,"ha":394,"o":"m 473 214 q 413 104 343 43 q 273 -18 177 -18 q 81 -18 69 31 l 13 -144 q -7 -203 -18 -220 q -28 -238 -41 -243 q -54 -248 -74 -248 l -122 -248 q -96 -210 -17 14 q 62 239 88 301 q 113 363 125 376 q 149 400 208 400 l 238 400 q 209 380 159 280 q 252 404 323 404 q 390 404 390 312 q 390 236 342 156 q 294 76 229 32 l 237 32 q 278 32 320 65 q 363 98 394 138 q 411 160 442 212 q 473 265 475 265 q 483 265 483 248 q 483 231 473 214 z m 278 319 q 275 320 269 320 q 248 320 223 300 q 182 268 136 194 q 90 120 90 73 q 90 26 119 26 q 171 26 232 129 q 293 232 293 290 q 293 315 278 319 z"},"X":{"x_min":0,"x_max":560,"ha":560,"o":"m 790 695 q 619 548 446 373 q 505 151 548 46 q 564 8 571 0 l 430 0 l 355 280 q 223 141 108 0 l 0 0 q 202 185 343 327 l 276 588 q 265 631 228 631 q 191 631 152 592 q 151 591 149 591 q 142 591 142 600 q 142 608 145 611 q 179 644 228 670 q 276 697 310 697 q 344 697 359 682 q 374 667 380 650 q 385 634 397 580 q 409 525 434 419 q 562 550 675 679 q 691 696 738 696 q 748 696 766 696 q 783 695 790 695 z"},"*":{"x_min":0,"x_max":652,"ha":652,"o":"m 598 586 l 622 512 l 353 413 l 352 410 l 562 314 l 493 239 l 328 382 l 321 379 l 278 139 l 187 139 l 289 379 l 285 382 l 32 239 l 8 313 l 277 409 l 278 413 l 68 511 l 137 585 l 303 441 l 309 443 l 353 686 l 443 686 l 341 443 l 345 441 z"},"Y":{"x_min":0,"x_max":684,"ha":684,"o":"m 756 698 q 662 633 570 529 q 456 400 388 251 q 350 166 332 80 q 324 43 324 25 q 324 7 328 0 l 199 0 q 203 17 238 124 q 274 231 274 278 q 274 326 251 406 q 228 486 190 552 q 151 619 115 619 q 70 619 11 541 q 10 540 9 540 q 4 540 4 548 q 4 556 5 557 q 40 628 79 662 q 118 695 178 695 q 238 695 265 664 q 292 633 320 540 q 347 446 374 337 q 395 366 486 496 q 577 626 617 678 q 633 699 699 699 q 710 699 730 698 q 749 698 756 698 z"},"c":{"x_min":0,"x_max":358,"ha":358,"o":"m 434 256 q 440 256 440 237 q 440 218 424 190 q 407 162 398 148 q 388 133 365 101 q 342 69 325 55 q 308 41 282 22 q 238 -10 168 -10 q 97 -10 66 26 q 34 61 34 118 q 34 223 108 310 q 183 398 284 398 q 329 398 356 374 q 383 351 383 318 q 383 286 365 262 q 347 238 324 238 q 279 238 279 275 q 279 287 304 298 q 314 302 322 313 q 330 324 330 342 q 330 368 302 368 q 242 368 183 281 q 124 194 124 112 q 124 31 195 31 q 294 31 388 184 q 407 214 420 235 q 432 256 434 256 z"},"!":{"x_min":0,"x_max":351,"ha":351,"o":"m 332 654 l 390 650 q 398 650 401 651 q 346 572 266 418 q 186 265 175 232 l 134 224 q 151 262 206 419 q 260 576 280 630 q 289 654 332 654 z m 159 49 q 148 47 126 26 q 105 5 98 -8 q 49 8 49 33 q 49 51 70 68 q 92 85 120 85 q 161 85 161 60 q 161 57 159 49 z"},"/":{"x_min":0,"x_max":455,"ha":455,"o":"m 678 694 l 122 -58 q 120 -61 95 -61 q 70 -61 70 -54 l 70 -53 l 626 699 q 629 702 654 702 q 678 702 678 695 z"},"[":{"x_min":0,"x_max":455,"ha":455,"o":"m 280 712 l 523 712 l 507 664 l 354 664 l 119 -29 l 272 -29 l 256 -77 l 13 -77 q 268 677 280 712 z"},"6":{"x_min":0,"x_max":583,"ha":583,"o":"m 589 588 q 589 546 568 533 q 547 520 531 520 q 502 520 488 553 q 514 570 514 605 q 514 640 492 657 q 470 674 433 674 q 355 674 283 596 q 211 517 167 392 q 245 456 360 456 q 447 456 496 408 q 546 359 546 280 q 546 145 453 70 q 360 -6 241 -6 q 122 -6 76 46 q 31 99 31 190 q 31 280 61 370 q 91 461 142 538 q 193 614 270 664 q 347 713 422 713 q 496 713 542 682 q 589 651 589 588 z m 310 413 q 222 409 177 341 q 132 273 132 175 q 132 111 161 70 q 190 28 246 28 q 329 28 384 101 q 440 174 440 261 q 440 328 406 370 q 372 413 310 413 z"},"r":{"x_min":0,"x_max":336,"ha":336,"o":"m 304 402 l 355 401 l 365 401 q 350 390 322 336 q 295 282 282 254 q 268 227 252 180 q 235 134 235 105 q 235 76 255 76 q 268 77 292 94 q 315 112 330 132 q 346 151 364 182 q 383 212 396 234 q 410 257 412 257 q 419 257 419 238 q 419 220 409 203 q 366 132 338 94 q 310 56 270 24 q 231 -7 199 -7 q 142 -7 142 77 q 142 134 164 206 q 186 278 229 345 q 194 317 159 317 q 148 317 136 322 q 65 182 60 182 q 54 182 54 198 q 54 215 66 244 q 79 274 94 301 q 108 328 109 331 q 73 349 73 389 q 73 409 86 425 q 98 441 120 441 q 142 441 156 427 q 154 421 154 409 q 154 382 174 366 q 193 351 221 351 q 229 351 233 352 q 268 402 304 402 z"},"2":{"x_min":0,"x_max":568,"ha":568,"o":"m 600 547 q 579 415 386 316 q 319 282 281 262 q 243 242 186 202 q 128 162 113 134 l 122 134 q 160 134 212 116 q 265 99 334 88 q 402 77 430 77 q 529 77 530 150 l 557 150 q 555 80 512 32 q 469 -17 395 -17 q 321 -17 272 20 q 261 31 230 51 q 200 71 189 76 q 160 91 140 91 q 121 91 111 75 q 101 59 100 40 q 99 20 90 4 q 80 -12 64 -12 q 30 -12 30 26 q 30 124 138 217 q 188 260 242 300 q 391 410 454 491 q 491 539 491 585 q 491 631 466 657 q 440 683 388 683 q 335 683 285 632 q 235 580 235 524 q 235 508 239 496 q 216 480 196 480 q 175 480 162 495 q 150 510 150 537 q 150 585 178 622 q 206 658 248 678 q 332 716 412 716 q 463 716 503 704 q 543 693 572 660 q 602 627 602 575 q 602 567 600 547 z"},"{":{"x_min":0,"x_max":457,"ha":457,"o":"m 293 -79 l 241 -81 q 141 -81 120 -72 q 98 -64 83 -55 q 55 -38 55 3 q 55 44 84 126 q 112 209 112 244 q 112 280 92 300 q 72 319 52 324 q 31 329 9 329 l 19 360 q 100 366 114 375 q 127 384 141 395 q 177 423 198 518 q 206 555 213 578 q 220 600 244 628 q 267 655 298 671 q 330 687 346 694 q 390 712 474 712 l 500 712 l 491 681 q 404 681 360 648 q 342 634 328 610 q 314 586 308 566 q 303 547 294 516 q 286 485 279 467 q 259 416 201 379 q 143 342 82 340 q 128 339 167 310 q 206 282 206 242 q 206 202 183 130 q 160 58 160 21 q 160 -51 266 -51 q 273 -51 286 -50 q 300 -50 305 -50 z"}," ":{"x_min":0,"x_max":300,"ha":300,"o":""},"I":{"x_min":0,"x_max":280,"ha":280,"o":"m 237 698 l 463 698 q 394 645 273 370 q 242 300 202 186 q 163 73 163 21 q 163 7 167 0 l 38 0 q 66 121 156 336 q 276 622 311 661 q 226 659 138 626 q 51 594 37 549 q 36 546 33 546 q 24 546 24 559 q 24 561 26 569 q 45 624 81 654 q 117 684 152 691 q 186 698 237 698 z"},"H":{"x_min":0,"x_max":680,"ha":680,"o":"m 793 698 l 857 698 q 807 659 732 498 q 597 211 597 95 q 597 36 634 36 q 650 36 673 49 l 674 49 q 677 49 677 43 q 677 24 626 8 q 576 -9 545 -9 q 484 -9 484 56 q 484 141 565 342 l 282 342 q 249 265 216 168 q 183 70 183 22 q 183 7 187 0 l 58 0 q 86 121 176 336 q 296 622 331 661 q 246 659 158 626 q 71 594 57 549 q 56 546 53 546 q 44 546 44 559 q 44 561 46 569 q 65 624 101 654 q 137 684 172 691 q 206 698 257 698 l 483 698 q 415 646 302 391 l 585 391 q 679 611 718 668 q 725 679 744 688 q 763 698 793 698 z"},"4":{"x_min":0,"x_max":687,"ha":687,"o":"m 648 269 q 598 217 499 217 q 482 217 462 220 q 416 77 397 0 l 278 0 q 302 54 368 233 q 338 240 289 254 q 179 287 138 287 q 97 287 79 273 q 61 259 60 242 q 59 197 31 197 q 20 197 12 208 q 4 219 4 239 q 4 284 47 306 l 516 708 l 640 708 q 567 535 486 290 q 623 300 623 373 q 623 390 614 402 q 625 410 641 410 q 657 410 670 390 q 684 369 684 348 q 684 307 648 269 z m 527 659 l 125 320 q 199 316 258 306 q 318 295 390 292 z"},"~":{"x_min":0,"x_max":514,"ha":514,"o":"m 609 688 q 553 609 498 609 q 465 609 407 630 q 349 652 317 652 q 261 652 242 623 q 239 619 235 619 q 226 619 226 630 q 226 641 262 671 q 299 701 332 701 q 366 701 424 680 q 482 658 510 658 q 537 658 557 669 q 577 680 588 690 q 600 701 602 701 q 610 701 610 692 q 610 689 609 688 z"},"D":{"x_min":0,"x_max":710,"ha":710,"o":"m 723 358 q 704 240 634 153 q 564 66 464 23 q 364 -20 247 -20 q 30 -20 30 91 q 30 211 242 630 q 252 650 257 658 q 178 652 96 623 q 14 594 -11 551 q -12 548 -16 548 q -20 548 -20 554 q -20 559 -19 561 q 19 665 120 688 q 166 698 243 698 l 448 698 q 590 698 659 621 q 728 544 728 425 q 728 396 723 358 z m 618 350 q 629 396 629 438 q 629 535 572 599 q 540 634 484 650 q 429 667 381 667 q 333 604 266 460 q 200 315 159 187 q 138 124 138 86 q 138 47 158 35 q 178 23 229 23 q 368 23 477 116 q 586 210 618 350 z"},"^":{"x_min":0,"x_max":531,"ha":531,"o":"m 527 491 l 527 490 q 527 484 512 472 q 498 461 488 461 q 468 461 434 518 q 401 574 378 625 q 328 575 257 517 q 186 459 168 459 q 162 459 162 460 q 162 462 163 463 q 281 559 379 665 q 392 680 398 680 q 405 680 415 662 q 450 587 527 491 z"},"F":{"x_min":0,"x_max":380,"ha":380,"o":"m 471 698 l 580 703 q 611 703 614 690 q 618 678 618 672 q 618 637 594 584 q 569 530 558 530 q 548 530 548 538 l 556 598 q 556 628 528 646 q 499 665 464 665 q 429 665 412 660 q 396 655 385 639 q 338 572 261 391 l 483 391 l 484 390 q 484 383 470 362 q 456 342 447 342 l 240 342 q 143 106 143 22 q 143 7 147 0 l 18 0 q 45 114 138 342 l 83 342 q 75 342 75 347 q 75 357 94 374 q 113 391 125 391 l 159 391 q 244 592 290 660 q 64 628 19 551 q 18 548 14 548 q 10 548 10 554 q 10 559 11 561 q 49 665 150 688 q 196 698 273 698 z"},"`":{"x_min":0,"x_max":531,"ha":531,"o":"m 403 580 q 360 602 344 609 q 327 616 327 618 q 327 624 347 635 q 367 646 375 646 q 383 646 387 644 q 405 631 440 606 l 497 563 q 520 546 527 543 q 527 540 517 536 q 507 531 504 531 q 502 531 474 545 q 474 545 403 580 z"},"k":{"x_min":0,"x_max":411,"ha":411,"o":"m 482 199 q 447 140 411 92 q 334 -8 259 -8 q 218 -8 198 33 q 177 74 177 124 q 177 224 207 224 q 254 224 294 246 q 334 267 334 302 q 334 330 302 330 q 233 330 149 180 q 141 165 116 110 q 90 56 70 28 q 51 0 32 0 l -29 0 q 2 58 62 234 q 123 411 152 471 q 153 473 164 497 q 176 521 180 530 q 185 539 198 564 q 211 589 219 601 q 227 613 241 636 q 255 658 266 670 q 277 682 292 698 q 307 715 320 723 q 354 743 382 743 q 437 743 437 693 q 437 623 352 508 q 268 392 162 289 l 144 239 q 192 301 253 348 q 314 394 365 394 q 394 394 410 380 q 427 366 427 342 q 427 287 378 254 q 330 220 267 210 q 276 106 296 83 q 306 72 321 72 q 336 72 362 90 q 388 108 404 130 q 421 151 440 181 q 458 211 472 233 q 485 255 487 255 q 493 255 493 236 q 493 216 482 199 z m 384 717 q 328 717 188 357 q 316 507 368 610 q 398 664 398 699 q 398 717 384 717 z"},"u":{"x_min":0,"x_max":449,"ha":449,"o":"m 416 403 l 464 402 q 479 402 483 403 q 455 384 402 270 q 350 157 350 107 q 350 77 370 77 q 383 77 406 94 q 428 111 444 132 q 460 152 478 182 q 497 212 510 234 q 524 256 526 256 q 532 256 532 237 q 532 218 521 201 q 397 -6 314 -6 q 258 -6 258 77 q 258 103 262 127 q 168 -6 83 -6 q 58 -6 42 15 q 27 36 27 77 q 27 118 56 212 q 85 307 127 368 q 137 383 148 386 q 160 390 192 390 l 240 390 q 215 356 186 298 q 120 161 120 97 q 120 59 148 59 q 175 59 213 112 q 251 165 294 250 q 338 334 345 345 q 382 403 416 403 z"},"]":{"x_min":0,"x_max":455,"ha":455,"o":"m 280 712 l 523 712 l 256 -77 l 13 -77 l 29 -29 l 182 -29 l 417 664 l 264 664 z"},"U":{"x_min":0,"x_max":710,"ha":710,"o":"m 308 630 q 326 659 327 661 q 242 659 154 626 q 67 594 53 549 q 52 546 49 546 q 40 546 40 559 q 40 561 48 586 q 57 611 80 638 q 103 665 132 678 q 181 698 253 698 l 480 698 q 434 663 366 536 q 299 409 260 312 q 205 185 205 120 q 205 56 256 56 q 299 56 367 118 q 435 179 501 268 q 631 445 684 544 q 737 642 766 670 q 795 698 830 698 l 892 698 q 845 662 755 482 q 620 210 620 91 q 620 36 655 36 q 672 36 695 49 l 696 49 q 699 49 699 43 q 699 24 649 8 q 599 -8 568 -8 q 504 -8 504 66 q 504 103 530 184 q 556 266 596 353 q 447 131 374 66 q 293 -7 224 -7 q 109 -7 109 104 q 109 186 170 338 q 230 489 308 630 z"},"o":{"x_min":0,"x_max":449,"ha":449,"o":"m 517 246 q 520 252 523 252 q 529 252 529 237 q 529 189 490 158 q 452 126 418 126 q 385 126 361 145 q 325 74 276 33 q 226 -8 148 -8 q 98 -8 66 22 q 35 53 35 116 q 35 178 64 244 q 92 311 150 359 q 207 407 278 407 q 397 407 397 281 q 397 233 376 180 q 391 159 419 159 q 471 159 517 246 z m 350 308 q 346 361 302 361 q 233 361 167 227 q 131 153 131 93 q 131 33 183 30 q 226 30 262 76 q 299 121 324 176 q 290 205 290 249 q 290 276 304 292 q 319 308 344 308 z"},"N":{"x_min":0,"x_max":640,"ha":640,"o":"m 858 697 q 818 671 746 529 q 673 387 616 232 q 560 78 560 18 q 560 5 562 0 l 499 0 q 496 58 478 102 q 461 145 452 166 q 443 188 421 238 q 399 288 382 328 q 330 449 323 534 q 257 387 193 223 q 129 59 129 9 q 129 2 130 0 l 38 0 q 95 146 201 385 q 307 624 330 669 q 239 669 152 633 q 66 597 51 549 q 50 546 47 546 q 39 546 39 559 q 39 561 47 586 q 55 611 78 638 q 100 665 130 678 q 179 698 251 698 l 420 698 q 406 675 406 642 q 406 568 463 434 q 515 309 524 274 q 534 240 536 229 q 539 218 540 203 q 541 188 542 184 q 555 216 765 698 q 767 703 784 703 q 800 703 827 700 q 854 697 858 697 z"},"+":{"x_min":0,"x_max":722,"ha":722,"o":"m 108 376 l 346 368 q 401 505 423 574 q 426 586 464 600 q 502 614 512 614 q 522 614 522 613 l 522 612 q 425 398 412 368 q 638 370 700 373 q 701 373 701 371 q 701 362 676 335 q 651 308 638 308 l 390 317 q 362 260 334 184 q 305 108 297 74 q 294 62 256 48 q 217 34 207 34 q 197 34 197 35 l 197 36 q 248 130 326 318 q 138 318 92 314 q 45 311 45 312 q 45 321 70 348 q 95 376 108 376 z"},"G":{"x_min":0,"x_max":740,"ha":740,"o":"m 792 313 q 785 277 768 260 q 751 243 722 238 q 620 -38 323 -38 q 192 -38 122 24 q 51 85 51 196 q 51 280 90 370 q 129 461 194 536 q 258 611 352 660 q 446 708 536 708 q 626 708 675 676 q 724 645 724 594 q 724 542 675 500 q 626 459 566 459 q 544 459 530 468 q 516 478 516 493 q 516 508 528 525 q 539 521 553 521 q 592 521 625 548 q 658 575 658 613 q 658 671 582 671 q 507 671 432 626 q 357 580 301 510 q 245 439 210 349 q 174 259 174 173 q 174 87 218 46 q 262 5 335 5 q 440 5 533 70 q 626 134 642 235 q 463 235 427 230 q 432 239 440 253 q 447 267 466 290 q 486 313 499 313 z"},"q":{"x_min":0,"x_max":463,"ha":463,"o":"m 541 258 q 546 258 546 240 q 546 221 540 210 q 535 200 520 176 q 506 152 500 143 q 495 134 480 112 q 465 91 455 81 q 445 71 430 58 q 404 33 374 33 q 345 33 336 56 q 327 26 306 -48 q 284 -122 272 -164 q 259 -205 228 -225 q 198 -245 133 -245 q 169 -196 217 -63 q 234 -16 265 74 q 296 165 311 207 q 195 -3 95 -3 q 28 -3 28 89 q 28 159 58 231 q 89 303 146 354 q 203 404 271 404 q 301 404 328 391 q 356 378 366 348 q 380 377 401 388 q 422 400 467 400 l 497 400 q 439 364 355 116 l 355 111 q 355 71 382 71 q 410 71 463 138 q 477 156 508 207 q 539 258 541 258 z m 354 321 l 361 337 q 350 367 315 367 q 249 367 187 275 q 125 183 125 111 q 125 80 149 80 q 184 80 234 139 q 285 198 316 250 q 346 302 354 321 z"},"d":{"x_min":0,"x_max":476,"ha":476,"o":"m 601 654 q 568 630 514 520 q 461 409 420 286 q 379 164 379 109 q 379 77 396 77 q 413 77 438 99 q 464 121 475 136 q 486 151 504 182 q 523 212 536 234 q 550 257 552 257 q 559 257 559 238 q 558 203 476 92 q 449 56 411 25 q 373 -6 342 -6 q 289 -6 289 73 q 289 131 318 222 q 272 131 213 64 q 154 -3 95 -3 q 28 -3 28 89 q 28 159 58 231 q 89 303 146 354 q 203 404 270 404 q 336 404 361 360 q 389 415 418 487 q 448 559 458 580 q 467 602 472 612 q 476 622 483 631 q 494 645 510 648 q 525 652 560 652 q 594 653 601 654 z m 356 348 q 344 366 316 366 q 271 366 226 320 q 180 275 152 216 q 125 156 125 111 q 125 80 149 80 q 230 80 356 348 z"},"1":{"x_min":0,"x_max":349,"ha":349,"o":"m 264 708 l 390 708 q 336 583 248 328 q 159 74 145 0 l 24 0 q 56 72 214 492 l 266 632 l 124 500 l 89 500 z"},"5":{"x_min":0,"x_max":583,"ha":583,"o":"m 122 415 q 122 436 250 708 l 440 708 q 467 708 506 710 l 546 713 q 573 713 584 707 q 594 701 594 676 q 594 652 572 602 l 544 530 l 524 530 l 529 547 q 541 578 528 604 q 521 621 484 634 q 461 643 360 643 q 357 643 355 643 q 315 643 275 643 q 211 506 186 446 q 249 466 303 466 q 415 466 484 408 q 553 350 553 264 q 553 195 522 140 q 492 86 442 55 q 340 -8 221 -8 q 134 -8 74 32 q 14 73 14 153 q 14 200 42 238 q 69 276 112 276 q 137 276 157 262 q 112 213 112 148 q 112 82 149 52 q 186 22 244 22 q 320 22 376 86 q 431 150 431 236 q 431 323 377 374 q 323 424 244 424 q 223 424 184 414 q 145 404 134 404 q 122 404 122 415 z"}}}
